<?xml version="1.0" encoding="UTF-8"?>
<svg xmlns="http://www.w3.org/2000/svg" xmlns:xlink="http://www.w3.org/1999/xlink" width="64pt" height="64pt" viewBox="0 0 64 64" version="1.1">
<g id="surface3809133">
<path style=" stroke:none;fill-rule:nonzero;fill:rgb(20.392157%,28.627451%,36.862745%);fill-opacity:1;" d="M 31.496094 4.007812 C 21.097656 4.292969 12.6875 12.859375 12.6875 23.335938 C 12.6875 29.113281 14.691406 33.328125 17.113281 36.851562 C 19.535156 40.375 22.289062 43.300781 24.261719 46.949219 C 26.402344 50.910156 27.351562 54.441406 27.753906 56.441406 C 28.164062 58.488281 29.988281 60 32.085938 60 C 34.109375 60 35.898438 58.597656 36.375 56.625 L 36.375 56.621094 C 36.957031 54.1875 38.226562 49.722656 39.765625 46.976562 C 41.605469 43.691406 43.929688 41.042969 46.09375 38.09375 C 48.257812 35.144531 50.242188 31.84375 51.007812 27.460938 C 52.984375 16.160156 45.136719 4.984375 33.601562 4.0625 C 32.894531 4.007812 32.1875 3.988281 31.496094 4.007812 Z M 31.597656 8.003906 C 32.152344 7.988281 32.714844 8.003906 33.28125 8.050781 C 33.820312 8.09375 34.351562 8.171875 34.871094 8.269531 L 27.128906 17.300781 L 21.230469 12.4375 C 23.902344 9.789062 27.539062 8.109375 31.597656 8.003906 Z M 38.910156 9.699219 C 41.335938 10.972656 43.355469 12.890625 44.804688 15.210938 L 39.566406 21.324219 C 39.238281 20.324219 38.746094 19.371094 38.015625 18.546875 C 36.902344 17.292969 35.203125 16.550781 33.289062 16.257812 Z M 18.769531 15.597656 L 24.523438 20.339844 L 17.421875 28.625 C 16.960938 27.070312 16.6875 25.351562 16.6875 23.335938 C 16.6875 20.507812 17.445312 17.867188 18.769531 15.597656 Z M 46.617188 19.246094 C 47.320312 21.617188 47.519531 24.183594 47.066406 26.773438 C 46.441406 30.351562 44.882812 32.980469 42.867188 35.730469 C 40.851562 38.480469 38.363281 41.292969 36.273438 45.023438 C 34.324219 48.507812 33.109375 53.105469 32.488281 55.6875 C 32.441406 55.886719 32.300781 56 32.085938 56 C 31.867188 56 31.71875 55.878906 31.675781 55.65625 C 31.214844 53.355469 30.15625 49.449219 27.78125 45.050781 C 27.351562 44.257812 26.882812 43.535156 26.417969 42.8125 L 37.632812 29.730469 C 37.742188 29.621094 37.914062 29.566406 38.015625 29.453125 C 38.160156 29.289062 38.210938 29.078125 38.339844 28.90625 Z M 32.019531 20 C 33.519531 20 34.390625 20.492188 35.023438 21.203125 C 35.65625 21.914062 36.019531 22.945312 36.019531 24 C 36.019531 24.945312 35.644531 25.804688 35.128906 26.5 L 34.796875 26.886719 C 34.175781 27.511719 33.40625 28 32.019531 28 C 30.519531 28 29.648438 27.507812 29.015625 26.796875 C 28.382812 26.085938 28.019531 25.054688 28.019531 24 C 28.019531 22.972656 28.386719 21.984375 28.992188 21.273438 L 29.070312 21.179688 C 29.699219 20.488281 30.546875 20 32.019531 20 Z M 24.457031 26.5625 C 24.78125 27.605469 25.265625 28.601562 26.023438 29.453125 C 27.117188 30.683594 28.78125 31.414062 30.652344 31.722656 L 24.054688 39.421875 C 22.773438 37.734375 21.5 36.171875 20.410156 34.585938 C 19.976562 33.957031 19.59375 33.320312 19.21875 32.675781 Z M 24.457031 26.5625 "/>
</g>
</svg>
