<?xml version="1.0" encoding="UTF-8"?>
<svg xmlns="http://www.w3.org/2000/svg" xmlns:xlink="http://www.w3.org/1999/xlink" width="64pt" height="64pt" viewBox="0 0 64 64" version="1.1">
<g id="surface3807880">
<path style=" stroke:none;fill-rule:nonzero;fill:rgb(20.392157%,28.627451%,36.862745%);fill-opacity:1;" d="M 18.164062 10 C 13.679688 10 10 13.679688 10 18.164062 L 10 45.835938 C 10 50.320312 13.679688 54 18.164062 54 L 45.835938 54 C 50.320312 54 54 50.320312 54 45.835938 L 54 18.164062 C 54 13.679688 50.320312 10 45.835938 10 Z M 18.164062 14 L 45.835938 14 C 48.15625 14 50 15.84375 50 18.164062 L 50 45.835938 C 50 48.15625 48.15625 50 45.835938 50 L 18.164062 50 C 15.84375 50 14 48.15625 14 45.835938 L 14 18.164062 C 14 15.84375 15.84375 14 18.164062 14 Z M 31.4375 24.460938 C 29.96875 24.445312 28.71875 24.460938 28.015625 24.804688 C 27.546875 25.03125 27.1875 25.546875 27.40625 25.570312 C 27.679688 25.609375 28.296875 25.742188 28.625 26.1875 C 29.046875 26.757812 29.03125 28.046875 29.03125 28.046875 C 29.03125 28.046875 29.265625 31.59375 28.460938 32.039062 C 27.90625 32.34375 27.148438 31.726562 25.507812 28.90625 C 24.671875 27.453125 24.039062 25.851562 24.039062 25.851562 C 24.039062 25.851562 23.921875 25.554688 23.703125 25.398438 C 23.4375 25.203125 23.070312 25.140625 23.070312 25.140625 L 19.15625 25.164062 C 19.15625 25.164062 18.570312 25.1875 18.359375 25.4375 C 18.164062 25.671875 18.34375 26.132812 18.34375 26.132812 C 18.34375 26.132812 21.40625 33.296875 24.875 36.90625 C 28.054688 40.21875 31.664062 40 31.664062 40 L 33.304688 40 C 33.304688 40 33.796875 39.945312 34.046875 39.679688 C 34.28125 39.429688 34.273438 38.960938 34.273438 38.960938 C 34.273438 38.960938 34.242188 36.765625 35.257812 36.4375 C 36.265625 36.125 37.546875 38.5625 38.914062 39.5 C 39.953125 40.210938 40.742188 40.054688 40.742188 40.054688 L 44.398438 40 C 44.398438 40 46.304688 39.882812 45.398438 38.375 C 45.328125 38.257812 44.875 37.265625 42.6875 35.234375 C 40.390625 33.109375 40.695312 33.453125 43.460938 29.773438 C 45.140625 27.53125 45.8125 26.164062 45.601562 25.570312 C 45.398438 25.015625 44.164062 25.164062 44.164062 25.164062 L 40.046875 25.1875 C 40.046875 25.1875 39.742188 25.148438 39.515625 25.28125 C 39.296875 25.414062 39.15625 25.726562 39.15625 25.726562 C 39.15625 25.726562 38.5 27.460938 37.632812 28.9375 C 35.804688 32.046875 35.0625 32.21875 34.765625 32.023438 C 34.070312 31.570312 34.242188 30.210938 34.242188 29.25 C 34.242188 26.226562 34.703125 24.976562 33.351562 24.648438 C 32.90625 24.539062 32.578125 24.46875 31.4375 24.460938 Z M 31.4375 24.460938 "/>
</g>
</svg>
