<?xml version="1.0" encoding="UTF-8"?>
<svg xmlns="http://www.w3.org/2000/svg" xmlns:xlink="http://www.w3.org/1999/xlink" width="64pt" height="64pt" viewBox="0 0 64 64" version="1.1">
<g id="surface3806502">
<path style=" stroke:none;fill-rule:nonzero;fill:rgb(20.392157%,28.627451%,36.862745%);fill-opacity:1;" d="M 12 14.0625 C 11.382812 14.0625 10.804688 14.179688 10.25 14.351562 L 16.078125 18.0625 L 47.921875 18.0625 L 53.75 14.351562 C 53.195312 14.179688 52.617188 14.0625 52 14.0625 Z M 8.226562 15.4375 C 6.875 16.539062 6 18.195312 6 20.0625 L 6 46.0625 C 6 49.367188 8.695312 52.0625 12 52.0625 L 52 52.0625 C 55.304688 52.0625 58 49.367188 58 46.0625 L 58 20.0625 C 58 18.195312 57.125 16.539062 55.773438 15.4375 L 32 30.5625 Z M 12 24.890625 L 32 37.625 L 52 24.890625 L 52 48.0625 L 12 48.0625 Z M 12 24.890625 "/>
</g>
</svg>
