<?xml version="1.0" encoding="UTF-8"?>
<svg xmlns="http://www.w3.org/2000/svg" xmlns:xlink="http://www.w3.org/1999/xlink" width="32pt" height="32pt" viewBox="0 0 32 32" version="1.1">
<g id="surface3804810">
<path style=" stroke:none;fill-rule:nonzero;fill:rgb(20.392157%,28.627451%,36.862745%);fill-opacity:1;" d="M 15.699219 4 C 13.800781 4 9.097656 4.199219 6.597656 6.597656 C 4.800781 8.300781 4.101562 10.898438 4 14 C 3.800781 18.898438 4.898438 22 6.699219 23.597656 C 7.097656 23.898438 8.101562 24.699219 10 25.300781 L 10 27.800781 C 10 27.800781 10 28.800781 10.597656 29 C 10.699219 29 10.800781 29.097656 10.902344 29.097656 C 11.5 29.097656 12 28.398438 12.699219 27.699219 C 13.300781 27 13.800781 26.5 14.097656 26 L 16.300781 26 C 18.199219 26 22.902344 25.800781 25.402344 23.402344 C 27.199219 21.601562 27.902344 19 27.902344 15.699219 C 28 15.199219 28 14.601562 28 14 C 27.898438 10.300781 26.800781 7.800781 25.300781 6.402344 C 24.699219 5.902344 22.101562 4 16.5 4 Z M 15.5 5.902344 L 16.402344 5.902344 C 21.699219 5.902344 23.699219 7.601562 23.902344 7.800781 C 25.101562 8.800781 25.800781 11 25.902344 13.902344 L 25.902344 14.300781 C 26 14.902344 26 15.398438 26 15.699219 C 25.898438 18.699219 25.300781 20.699219 24.097656 22 C 22 23.898438 17.601562 24 16.402344 24 L 14.5 24 L 12.902344 25.800781 L 11.902344 26.902344 L 11.699219 27.199219 C 11.5 27.398438 11.199219 27.800781 11 27.902344 L 11 23.402344 C 9 22.902344 8.199219 22.199219 8 22 C 6.601562 20.800781 5.800781 17.898438 6 14 L 6 13 C 6.199219 10.601562 6.800781 9 7.800781 7.902344 C 9.902344 6 14.300781 5.902344 15.5 5.902344 Z M 15.402344 8.097656 C 14.902344 8.097656 14.902344 8.800781 15.402344 8.800781 C 19.101562 8.800781 22.300781 11.300781 22.300781 16 C 22.300781 16.5 23 16.5 23 16 C 23 10.898438 19.601562 8 15.402344 8.097656 Z M 11.4375 9.023438 C 11.226562 9 11 9.050781 10.800781 9.199219 C 9.800781 9.699219 8.800781 10.699219 9.097656 11.800781 C 9.097656 11.800781 9.300781 12.699219 10.402344 14.597656 C 11 15.5 11.5 16.300781 12 16.902344 C 12.5 17.601562 13.300781 18.398438 14.097656 19 C 15.699219 20.300781 18.199219 21.601562 19.300781 21.902344 C 20.300781 22.199219 21.402344 21.199219 21.902344 20.199219 C 22.101562 19.800781 22 19.300781 21.597656 19 C 21 18.398438 20 17.699219 19.300781 17.300781 C 18.800781 17 18.199219 17.199219 18 17.5 L 17.5 18.097656 C 17.300781 18.398438 16.800781 18.402344 16.800781 18.402344 C 13.5 17.5 12.597656 14.097656 12.597656 14.097656 C 12.597656 14.097656 12.601562 13.699219 12.902344 13.402344 L 13.5 12.902344 C 13.800781 12.699219 14 12.097656 13.699219 11.597656 C 13.5 11.300781 13.199219 10.699219 12.902344 10.402344 C 12.601562 10 12 9.300781 12 9.300781 C 11.851562 9.152344 11.648438 9.050781 11.4375 9.027344 Z M 16.097656 10.097656 C 15.597656 10 15.5 10.800781 16 10.800781 C 18.800781 11 20.402344 12.902344 20.300781 15.300781 C 20.199219 15.800781 21 15.800781 21 15.300781 C 21.101562 12.5 19.300781 10.199219 16.097656 10.097656 Z M 16.402344 12 C 15.902344 11.898438 15.902344 12.699219 16.402344 12.699219 C 17.601562 12.699219 18.199219 13.398438 18.199219 14.597656 C 18.300781 15.097656 19 15.097656 19 14.597656 C 18.898438 13 18 12 16.402344 12 Z M 16.402344 12 "/>
</g>
</svg>
